# xmcd
#
# Track frame offsets:
#     150
#     14682
#     43638
#     72324
#     97020
#     127158
#     154730
#     179593
#     209720
#     247120
#
# Disc length: 3557 seconds
#
# Revision: 1
# Processed by: cddbd v1.5.2PL0 Copyright (c) Steve Scherf et al.
# Submitted via: wildbeast 0.84
#
DISCID=9d0de30a
DTITLE=Buddy Guy - Blues Alive
DYEAR=1992
DGENRE=Blues
TTITLE0=Mary Had A Little Lamb
TTITLE1=Sweet Little Angel
TTITLE2=I Just Want To Make Love To You
TTITLE3=Stormy Monday Blues
TTITLE4=Somebody's Tippin' In
TTITLE5=Sweet Home Chicago
TTITLE6=Hoochie Coochie Man
TTITLE7=Damn Right, I've Got The Blues
TTITLE8=Knock On Wood
TTITLE9=Johnny B. Goode
EXTD=
EXTT0=
EXTT1=
EXTT2=
EXTT3=
EXTT4=
EXTT5=
EXTT6=
EXTT7=
EXTT8=
EXTT9=
PLAYORDER=
